<?xml version="1.0" standalone="no"?>
<!DOCTYPE svg PUBLIC "-//W3C//DTD SVG 20010904//EN"
 "http://www.w3.org/TR/2001/REC-SVG-20010904/DTD/svg10.dtd">
<svg version="1.0" xmlns="http://www.w3.org/2000/svg"
 width="2940.000000pt" height="796.000000pt" viewBox="0 0 2940.000000 796.000000"
 preserveAspectRatio="xMidYMid meet">

<g transform="translate(0.000000,796.000000) scale(0.100000,-0.100000)"
fill="#000000" stroke="none">
<path d="M1320 5235 l0 -1005 45 0 45 0 0 -44 c0 -69 16 -76 182 -76 104 0
140 3 151 14 11 12 15 93 20 437 4 232 7 540 8 683 l1 261 17 -60 c10 -33 83
-320 162 -637 l144 -578 31 0 c30 0 33 -3 39 -40 12 -71 34 -80 205 -80 130 0
151 2 171 19 20 16 45 106 180 642 l157 624 1 -281 c1 -154 4 -416 8 -582 l6
-302 44 0 43 0 0 -42 c0 -72 2 -73 160 -76 116 -3 145 -1 166 12 l24 16 0 966
0 965 -35 20 c-34 21 -35 22 -35 85 l0 64 -303 0 -304 0 -158 -602 c-87 -332
-165 -624 -174 -650 l-16 -47 -124 467 c-174 655 -176 661 -199 682 -18 17
-52 108 -52 139 0 8 -91 11 -305 11 l-305 0 0 -1005z"/>
<path d="M3660 6060 l0 -180 44 0 43 0 6 -47 c3 -29 12 -52 23 -60 22 -16 285
-18 315 -3 17 10 19 23 19 161 l0 151 -30 11 c-29 11 -30 13 -30 79 l0 68
-195 0 -195 0 0 -180z"/>
<path d="M6010 5235 l0 -1005 45 0 45 0 0 -40 c0 -27 7 -47 20 -60 18 -18 33
-20 164 -20 114 0 148 3 159 15 13 12 16 83 20 442 4 357 7 439 21 493 31 121
90 191 191 229 94 35 232 23 258 -23 9 -15 13 -159 15 -528 l3 -508 43 0 43 0
6 -47 c3 -29 12 -52 23 -60 22 -16 285 -18 315 -3 18 10 19 27 19 528 0 605 1
596 -91 781 -70 142 -116 193 -212 241 -180 88 -388 75 -559 -36 -38 -24 -71
-44 -73 -44 -3 0 -5 108 -5 239 0 204 -2 242 -16 255 -8 9 -21 16 -28 16 -14
0 -26 50 -26 108 l0 32 -190 0 -190 0 0 -1005z"/>
<path d="M10850 5235 l0 -1005 44 0 43 0 6 -47 c3 -29 12 -52 23 -60 22 -16
285 -18 315 -3 19 10 19 32 19 986 l0 976 -30 11 c-29 11 -30 13 -30 79 l0 68
-195 0 -195 0 0 -1005z"/>
<path d="M20500 5643 l1 -458 29 35 29 35 1 407 0 407 -22 15 c-12 9 -26 16
-30 16 -5 0 -8 -206 -8 -457z"/>
<path d="M25820 5808 l1 -293 29 33 30 32 0 244 c0 209 -2 247 -16 260 -8 9
-22 16 -30 16 -12 0 -14 -46 -14 -292z"/>
<path d="M13404 6047 c15 -37 714 -1779 723 -1804 4 -10 -42 -13 -196 -15
l-201 -3 24 -51 c16 -34 31 -53 47 -57 40 -11 329 -8 350 3 10 6 19 18 19 26
0 20 -759 1916 -772 1929 -5 6 -3 -7 6 -28z"/>
<path d="M13092 5734 c-28 -69 -252 -688 -252 -696 0 -4 24 -8 53 -8 l54 0
103 278 c57 152 103 288 103 302 0 14 -12 54 -25 89 l-24 64 -12 -29z"/>
<path d="M4933 5721 c-276 -45 -469 -220 -545 -496 -19 -70 -22 -105 -22 -270
0 -178 2 -196 27 -278 40 -131 66 -176 199 -350 92 -119 205 -193 358 -233 95
-25 299 -23 401 4 177 47 301 147 378 302 67 136 65 190 -6 190 -27 0 -27 -1
-8 70 8 30 13 55 12 57 -2 1 -75 14 -163 28 -87 14 -171 28 -185 31 -24 5 -26
1 -37 -48 -35 -155 -140 -237 -291 -226 -108 8 -193 66 -212 144 -17 74 -22
247 -10 334 23 158 75 246 175 297 68 35 172 43 246 18 45 -15 55 -23 69 -56
11 -28 22 -39 37 -39 16 0 28 -12 43 -45 11 -24 29 -49 39 -54 21 -11 287 33
310 51 22 18 13 46 -53 181 -112 229 -209 318 -403 368 -86 22 -277 33 -359
20z"/>
<path d="M8133 5719 c-230 -27 -375 -143 -454 -364 l-18 -50 62 -15 c45 -11
61 -19 58 -30 -14 -51 -12 -69 6 -79 36 -19 262 -52 282 -42 10 6 33 33 51 61
59 91 158 125 313 106 75 -10 88 -21 90 -80 l2 -49 -55 -19 c-30 -10 -129 -34
-220 -53 -326 -69 -431 -108 -514 -190 -115 -116 -149 -330 -75 -478 30 -58
150 -217 195 -257 94 -82 256 -122 406 -100 106 15 173 41 262 101 100 67 122
65 151 -9 11 -27 27 -47 42 -53 40 -15 276 -11 298 5 19 14 19 15 1 72 -11 33
-23 75 -29 94 -5 19 -13 244 -17 500 -7 496 -11 531 -61 602 -11 15 -26 45
-34 67 -37 105 -138 194 -264 231 -125 37 -311 49 -478 29z m362 -1095 c-29
-60 -64 -93 -139 -132 -43 -22 -64 -26 -133 -27 -67 0 -86 4 -110 21 -47 35
-44 99 9 159 44 51 73 63 243 105 l150 37 3 -55 c2 -43 -3 -66 -23 -108z"/>
<path d="M9705 5715 c-89 -18 -215 -81 -283 -140 -63 -56 -133 -152 -167 -230
-103 -233 -96 -594 15 -816 39 -76 167 -246 228 -300 65 -59 152 -105 249
-130 101 -27 305 -30 405 -6 143 35 270 122 349 239 74 108 82 153 30 164 -62
13 -62 14 -36 74 13 30 22 56 21 57 -1 1 -74 14 -161 27 -88 14 -174 28 -191
31 -29 5 -32 3 -43 -36 -17 -55 -94 -134 -146 -148 -103 -28 -211 -4 -281 64
-40 37 -44 46 -44 88 0 81 -26 77 476 77 544 0 496 -19 473 188 -10 96 -30
189 -51 247 -32 87 -133 277 -172 327 -83 105 -196 177 -331 213 -86 23 -254
28 -340 10z m375 -436 c46 -26 62 -56 75 -144 l7 -45 -246 0 c-195 0 -246 3
-246 13 0 7 15 37 33 67 33 57 101 111 161 130 55 17 168 6 216 -21z"/>
<path d="M3660 4960 l0 -730 44 0 43 0 6 -47 c3 -29 12 -52 23 -60 22 -16 285
-18 315 -3 18 10 19 29 19 711 l0 701 -30 11 c-29 11 -30 13 -30 79 l0 68
-195 0 -195 0 0 -730z"/>
<path d="M14670 5523 c1 -27 1 -27 15 -9 19 25 19 36 0 36 -10 0 -15 -10 -15
-27z"/>
<path d="M18760 5518 l1 -33 19 24 c21 24 19 41 -6 41 -9 0 -14 -11 -14 -32z"/>
<path d="M21113 5360 c-98 -105 -179 -196 -181 -203 -1 -7 14 -40 35 -75 36
-61 37 -62 47 -38 6 14 90 110 186 213 96 103 190 205 208 227 32 37 33 41 16
53 -10 7 -44 13 -75 13 l-58 0 -178 -190z"/>
<path d="M23591 5458 c-16 -51 -105 -327 -196 -613 -91 -286 -173 -541 -181
-567 l-16 -48 -154 0 c-170 0 -167 1 -140 -65 8 -18 23 -38 34 -44 12 -6 79
-11 160 -11 119 0 143 3 160 18 15 12 82 209 236 692 119 371 216 683 216 692
0 21 -29 38 -64 38 -22 0 -27 -9 -55 -92z"/>
<path d="M21920 5528 c-1 -25 214 -768 222 -768 4 0 8 9 8 20 0 21 -182 675
-202 723 -12 31 -28 45 -28 25z"/>
<path d="M22810 5530 c0 -8 43 -188 97 -400 82 -326 99 -380 106 -354 7 24 -9
101 -82 384 -50 198 -97 360 -105 369 -14 13 -16 13 -16 1z"/>
<path d="M14925 5421 c-98 -26 -163 -89 -197 -191 -21 -62 -22 -85 -26 -532
l-4 -468 -144 0 -144 0 0 -50 c0 -38 4 -52 19 -60 31 -16 293 -13 317 4 18 14
19 34 25 473 6 507 6 511 73 603 61 84 205 133 296 101 31 -10 32 -10 26 15
-9 36 -35 69 -69 89 -32 19 -127 28 -172 16z"/>
<path d="M15800 5421 c-83 -27 -151 -90 -180 -168 -33 -87 -40 -202 -40 -620
l0 -403 -145 0 -145 0 0 -44 c0 -72 9 -76 174 -76 107 0 147 4 162 14 18 14
19 34 24 463 6 432 7 450 29 517 49 148 212 243 337 196 15 -6 29 -9 31 -6 12
11 -34 80 -68 103 -41 27 -133 39 -179 24z"/>
<path d="M17305 5421 c-77 -20 -127 -66 -160 -145 -14 -34 -20 -38 -43 -33
-15 3 -62 11 -106 18 -74 13 -79 12 -92 -6 -20 -26 -17 -62 4 -74 36 -19 261
-52 281 -42 10 6 33 33 51 61 20 31 50 61 79 78 42 25 55 27 146 27 55 0 115
-3 133 -7 25 -6 32 -4 32 8 0 31 -35 75 -77 95 -46 22 -195 35 -248 20z"/>
<path d="M19012 5415 c-117 -36 -190 -125 -212 -256 -5 -37 -10 -247 -10 -496
l0 -433 -150 0 -150 0 0 -40 c0 -27 7 -47 20 -60 18 -18 33 -20 158 -20 105 0
142 3 159 15 21 14 21 21 26 447 5 472 9 507 63 595 71 115 228 172 353 128
48 -17 52 -8 19 40 -56 83 -166 115 -276 80z"/>
<path d="M24335 5421 c-77 -20 -127 -66 -160 -145 -14 -34 -20 -38 -43 -33
-15 3 -62 11 -106 18 -74 13 -79 12 -92 -6 -20 -26 -17 -62 4 -74 36 -19 261
-52 281 -42 10 6 33 33 51 61 20 31 50 61 79 78 42 25 55 27 146 27 55 0 115
-3 133 -7 25 -6 32 -4 32 8 0 31 -35 75 -77 95 -46 22 -195 35 -248 20z"/>
<path d="M26045 5416 c-126 -40 -191 -120 -214 -266 -7 -38 -11 -241 -11 -492
l0 -427 -147 -3 -148 -3 -3 -37 c-2 -27 3 -43 17 -57 19 -19 33 -21 165 -21
114 0 148 3 159 15 13 12 16 83 20 442 5 462 10 510 62 599 68 117 233 175
364 129 45 -15 46 -14 30 18 -49 95 -177 140 -294 103z"/>
<path d="M16446 5385 c3 -16 9 -283 11 -592 l5 -562 -149 -3 -148 -3 -3 -37
c-2 -27 3 -43 17 -57 19 -19 33 -21 165 -21 118 0 147 3 160 16 14 14 16 76
16 537 0 566 -4 609 -55 703 -20 38 -24 42 -19 19z"/>
<path d="M18016 5369 c3 -25 7 -237 8 -470 2 -396 4 -429 23 -499 12 -41 30
-95 42 -120 l20 -45 -169 -3 -169 -2 21 -51 c14 -33 30 -54 45 -60 40 -15 276
-11 298 5 19 14 19 15 1 72 -11 33 -23 75 -29 94 -5 19 -13 244 -17 500 -7
496 -12 538 -61 600 l-20 25 7 -46z"/>
<path d="M19716 5385 c3 -16 9 -283 11 -592 l5 -563 -153 0 -152 0 6 -47 c3
-29 12 -52 23 -60 22 -16 285 -18 315 -3 18 10 19 27 19 538 0 571 -4 614 -55
708 -20 38 -24 42 -19 19z"/>
<path d="M25046 5369 c3 -25 7 -237 8 -470 2 -396 4 -429 23 -499 12 -41 30
-95 42 -120 l20 -45 -169 -3 -169 -2 21 -51 c14 -33 30 -54 45 -60 40 -15 276
-11 298 5 19 14 19 15 1 72 -11 33 -23 75 -29 94 -5 19 -13 244 -17 500 -7
496 -12 538 -61 600 l-20 25 7 -46z"/>
<path d="M26746 5370 c3 -19 8 -284 11 -587 l5 -553 -152 0 -153 0 6 -47 c3
-29 12 -52 23 -60 22 -16 285 -18 315 -3 18 10 19 27 19 528 0 559 -4 601 -55
705 -23 48 -24 49 -19 17z"/>
<path d="M22461 4729 c-63 -239 -118 -449 -123 -466 l-9 -33 -161 0 -160 0 6
-25 c14 -54 27 -76 51 -85 34 -13 291 -13 315 0 24 13 30 33 146 475 106 407
103 381 61 524 l-12 44 -114 -434z"/>
<path d="M17575 4909 c-33 -9 -118 -31 -190 -48 -146 -35 -208 -67 -236 -121
-34 -63 -19 -160 30 -204 21 -19 21 -19 21 13 0 72 65 139 162 169 35 11 108
30 163 42 55 12 104 26 108 30 4 4 7 36 5 72 l-3 64 -60 -17z"/>
<path d="M24605 4909 c-33 -9 -118 -31 -190 -48 -146 -35 -208 -67 -236 -121
-34 -63 -19 -160 30 -204 21 -19 21 -19 21 13 0 72 65 139 162 169 35 11 108
30 163 42 55 12 104 26 108 30 4 4 7 36 5 72 l-3 64 -60 -17z"/>
<path d="M20583 4791 l-83 -88 0 -237 0 -236 -150 0 -150 0 0 -44 c0 -69 16
-76 180 -76 193 0 180 -17 180 230 0 112 4 211 10 226 13 33 148 174 167 174
10 0 3 21 -23 70 -21 39 -41 70 -44 69 -3 -1 -42 -40 -87 -88z"/>
<path d="M12710 4688 c-1 -2 -38 -104 -84 -228 l-83 -225 -145 -3 -146 -3 -11
-31 c-15 -44 -14 -75 5 -82 9 -3 87 -6 174 -6 151 0 160 1 184 23 16 15 45 80
91 207 46 128 74 192 91 208 25 22 25 22 395 22 203 0 369 2 369 5 0 2 -9 29
-21 60 l-20 55 -400 0 c-219 0 -399 -1 -399 -2z"/>
<path d="M17620 4334 c-64 -51 -143 -94 -220 -120 -43 -15 -83 -19 -185 -18
-141 1 -208 17 -287 69 -52 35 -47 17 13 -49 127 -139 367 -182 576 -104 54
20 203 113 203 127 0 4 -10 37 -22 72 l-23 66 -55 -43z"/>
<path d="M24650 4334 c-64 -51 -143 -94 -220 -120 -43 -15 -83 -19 -185 -18
-141 1 -208 17 -287 69 -52 35 -47 17 13 -49 127 -139 367 -182 576 -104 54
20 203 113 203 127 0 4 -10 37 -22 72 l-23 66 -55 -43z"/>
<path d="M21088 4183 c16 -27 39 -54 53 -60 36 -19 309 -18 335 1 19 15 19 16
-5 60 l-24 46 -193 0 -193 0 27 -47z"/>
</g>
</svg>
