<svg xmlns="http://www.w3.org/2000/svg" xmlns:xlink="http://www.w3.org/1999/xlink" width="457" height="457" viewBox="0 0 457 457"><defs><clipPath id="a"><rect width="457" height="457" transform="translate(842.5 128.5)" fill="none" stroke="#707070" stroke-width="1"/></clipPath></defs><g transform="translate(-842.5 -128.5)" clip-path="url(#a)"><g transform="translate(-7.461 5.648)"><path d="M63.5,86.42A61.561,61.561,0,0,1,51.979,87.5C23.273,87.5,0,67.912,0,43.751S23.273,0,51.979,0s51.982,19.588,51.982,43.751c0,16.815-11.275,31.416-27.809,38.739V99.146S69.269,92.2,63.5,86.42Z" transform="translate(875.5 360.5)" fill="#90eee4"/></g><g transform="translate(1175.212 273)"><path d="M773.4,338.371c9.145-1.829,10.415-2.145,22.545-4.735a68.8,68.8,0,0,0,38.139,13.232c33.86,1.427,62.4-20.757,63.567-49.3,1.168-28.669-25.426-52.929-59.285-54.356s-62.4,20.627-63.566,49.3a46.231,46.231,0,0,0,7.654,27.113C778.691,327.179,782.316,319.851,773.4,338.371Z" transform="translate(-773.4 -243.15)" fill="#ffdb94"/><path d="M44.071,69.185,43.7,60.277l-7.318-6.388L29.48,57.2l.4,9.7L36.6,72.769a12.021,12.021,0,0,1-10.542-19.5L19.372,40.647c-.495-.96-.975-1.935-1.395-2.924L12.054,24.076a12.023,12.023,0,1,1,9.388-4.514l6.9,12.822c.615,1.14,1.17,2.309,1.68,3.509L35.493,48.76a12.035,12.035,0,0,1,8.578,20.425ZM12.624,4.4,5.711,7.714l-.57,7.633,6.313,4.319,6.9-3.314.585-7.633Z" transform="translate(42.479 90.658) rotate(-120)" fill="#fff"/></g><g transform="translate(-35 -15)"><circle cx="48.5" cy="48.5" r="48.5" transform="translate(1068 176)" fill="#d5ff94"/><g transform="translate(1074.233 182.232)"><circle cx="37.5" cy="37.5" r="37.5" transform="translate(4.767 4.767)" fill="#fff"/><path d="M38.786,11.258a1.376,1.376,0,0,1-1.376-1.376V4.376a1.376,1.376,0,0,1,2.753,0V9.882a1.376,1.376,0,0,1-1.376,1.376Zm0,63.313a1.376,1.376,0,0,1-1.376-1.376V67.689a1.376,1.376,0,1,1,2.753,0v5.505a1.376,1.376,0,0,1-1.376,1.376ZM9.882,40.162H4.376a1.376,1.376,0,0,1,0-2.753H9.882a1.376,1.376,0,0,1,0,2.753Zm63.313,0H67.689a1.376,1.376,0,1,1,0-2.753h5.505a1.376,1.376,0,0,1,0,2.753ZM18.347,19.723a1.372,1.372,0,0,1-.973-.4l-3.893-3.893a1.376,1.376,0,1,1,1.946-1.946l3.893,3.893a1.376,1.376,0,0,1-.973,2.35Zm44.77,44.77a1.372,1.372,0,0,1-.973-.4L58.251,60.2A1.376,1.376,0,1,1,60.2,58.251l3.892,3.893a1.376,1.376,0,0,1-.973,2.35Zm-48.662,0a1.376,1.376,0,0,1-.973-2.35l3.893-3.893A1.376,1.376,0,1,1,19.32,60.2L15.428,64.09a1.372,1.372,0,0,1-.973.4Zm24.331-28.46a1.376,1.376,0,0,1-1.376-1.376V18.14a1.376,1.376,0,0,1,2.753,0V34.657a1.376,1.376,0,0,1-1.376,1.376Zm15.14,4.129H42.915a1.376,1.376,0,0,1,0-2.753H53.926a1.376,1.376,0,0,1,0,2.753Z" transform="translate(3.481 3.481)" fill="#bdbdbd"/><path d="M5.083,0A5.083,5.083,0,1,1,0,5.083,5.083,5.083,0,0,1,5.083,0Z" transform="translate(37.184 37.184)" fill="#dcdde5"/><path d="M1.376,8.258A1.376,1.376,0,0,1,0,6.882V1.376a1.376,1.376,0,0,1,2.753,0V6.882A1.376,1.376,0,0,1,1.376,8.258Z" transform="translate(66.598 15.99) rotate(45)" fill="#bdbdbd"/></g></g><g transform="translate(3 6)"><rect width="67" height="6" rx="3" transform="translate(884 390)" fill="#fff"/><rect width="27" height="6" rx="3" transform="translate(884 402)" fill="#fff"/><rect width="38" height="6" rx="3" transform="translate(884 414)" fill="#fff"/><rect width="36" height="6" rx="3" transform="translate(915 402)" fill="#fff"/></g><g transform="translate(1145.213 406.187)" opacity="0.74"><path d="M95.022,57.124S122.24,8.86,102.13,1.214C81.2-6.745,79.451,26.416,78.953,42.653c-1.062,34.651,2.875,41.426,6.9,33.278l9.173-18.807m-62.99,92.1s-14.992-36.767-27.4-31c-12.91,6,4.352,23.215,12.952,31.478,18.35,17.626,23.641,19.106,20.874,13.17l-6.43-13.644m11.684-18.989s-18.81-34.971-30.532-27.922c-12.2,7.336,6.79,22.622,16.22,29.924,20.118,15.581,25.535,16.49,22.155,10.881l-7.842-12.883M55.809,105S34.715,63.073,20.635,71.02c-14.654,8.275,7.291,26.95,18.2,35.883,23.27,19.061,29.641,20.311,25.828,13.576L55.809,105M69.35,84.5S57.01,39.22,41.631,44.211c-16.006,5.2,1.79,27.862,10.7,38.783,19.014,23.307,25.01,25.8,22.614,18.439L69.35,84.5m-9.481,79.507s35.748,7.477,37.733-4.949c2.064-12.931-19.943-8.621-30.666-6.31-22.881,4.93-26.73,8.2-20.781,9.145l13.713,2.114m16.788-26.48s35.75,7.476,37.733-4.949c2.065-12.931-19.942-8.62-30.665-6.31-22.88,4.93-26.729,8.2-20.78,9.146l13.712,2.113m17.672-25.659s46.925.884,46.456-15.277c-.487-16.823-27.24-6.113-40.227-.628-27.71,11.7-31.787,16.752-24.05,16.518l17.821-.612m-11.4-18.619c-7.241,2.734-5.027-3.37,17.382-23.435,10.5-9.4,32.328-28.221,38.251-12.469,5.692,15.134-38.977,29.537-38.977,29.537L82.929,93.254" transform="translate(-0.001 0)" fill="#50daaf"/><g transform="translate(16.854 18.994)"><path d="M77.832,1.019c0,.01-2.319,16.673-6.166,36.492-1.922,9.913-4.229,20.613-6.821,30.423s-5.465,18.725-8.56,25.112c-14.064,29-35.238,59.807-54.747,80A.9.9,0,1,1,.252,171.8C19.586,151.8,40.708,121.075,54.674,92.264c3.006-6.193,5.866-15.038,8.441-24.788,3.865-14.631,7.1-31.314,9.373-44.334,1.135-6.509,2.027-12.1,2.636-16.07.3-1.982.538-3.558.7-4.638s.237-1.66.237-1.661a.9.9,0,1,1,1.773.247Z" transform="translate(0 0)" fill="#74b4a0"/><path d="M.37,29.476,40.818.17a.9.9,0,0,1,1.05,1.451L1.422,30.923A.895.895,0,1,1,.37,29.476" transform="translate(61.289 44.702)" fill="#74b4a0"/><path d="M.658,12.574,45.824.033A.895.895,0,1,1,46.3,1.757L1.135,14.3a.9.9,0,1,1-.478-1.726" transform="translate(54.581 79.22)" fill="#74b4a0"/><path d="M23.889,40.552.13,1.359A.9.9,0,0,1,1.662.432L25.421,39.623a.9.9,0,0,1-1.532.93" transform="translate(33.232 46.076)" fill="#74b4a0"/><path d="M.871,1.023,40.885,0a.895.895,0,0,1,.046,1.789L.918,2.813A.9.9,0,0,1,.871,1.023" transform="translate(42.939 112.988)" fill="#74b4a0"/><path d="M23.024,26.6.232,1.5A.9.9,0,1,1,1.558.294l22.793,25.1a.9.9,0,0,1-1.327,1.2" transform="translate(24.907 79.478)" fill="#74b4a0"/><path d="M18.663,19.925.263,1.53A.9.9,0,0,1,1.528.262l18.4,18.4a.9.9,0,0,1-1.265,1.267" transform="translate(15.654 107.679)" fill="#74b4a0"/><path d="M.8,2.376,23.884,0a.895.895,0,1,1,.183,1.78L.987,4.156A.895.895,0,1,1,.8,2.376" transform="translate(26.148 138.288)" fill="#74b4a0"/><path d="M19.735,24.831.208,1.47A.9.9,0,0,1,1.583.321L21.109,23.682a.9.9,0,1,1-1.374,1.149" transform="translate(2.252 122.729)" fill="#74b4a0"/></g></g><g transform="translate(-152.416 -1040.775)" opacity="0.23"><g transform="matrix(0.966, 0.259, -0.259, 0.966, 1268.339, 1340.776)"><path d="M21.732,0h7.344a1.986,1.986,0,0,1,1.13,1.815c.089,1.2.291,2.393.42,3.592a.539.539,0,0,0,.412.512q2.092.821,4.154,1.716a.549.549,0,0,0,.662-.064c1.028-.83,2.069-1.642,3.113-2.454a1.512,1.512,0,0,1,2.21.132q2.2,2.188,4.381,4.383a1.511,1.511,0,0,1,.121,2.212c-.811,1.041-1.626,2.082-2.453,3.113a.513.513,0,0,0-.069.616c.6,1.39,1.182,2.787,1.736,4.2a.536.536,0,0,0,.512.41c1.2.132,2.39.336,3.592.425a1.968,1.968,0,0,1,1.812,1.128v7.344a1.977,1.977,0,0,1-1.815,1.13c-1.2.089-2.393.293-3.592.423a.537.537,0,0,0-.509.415q-.829,2.092-1.72,4.154a.541.541,0,0,0,.063.659c.831,1.028,1.645,2.072,2.457,3.116a1.507,1.507,0,0,1-.14,2.209q-2.169,2.184-4.345,4.353a1.528,1.528,0,0,1-2.251.145c-1.028-.8-2.059-1.606-3.077-2.423a.547.547,0,0,0-.659-.092q-2.085.9-4.2,1.736a.5.5,0,0,0-.389.474c-.14,1.3-.316,2.591-.46,3.889a1.55,1.55,0,0,1-1.693,1.545q-3.078,0-6.152,0a1.552,1.552,0,0,1-1.685-1.555c-.145-1.3-.321-2.589-.46-3.887-.031-.282-.156-.369-.4-.466q-2.111-.844-4.2-1.738a.509.509,0,0,0-.616.069c-1.018.817-2.046,1.622-3.077,2.426A1.524,1.524,0,0,1,9.6,45.538Q7.424,43.361,5.258,41.18a1.523,1.523,0,0,1-.13-2.212c.813-1.044,1.627-2.085,2.455-3.118a.51.51,0,0,0,.071-.616c-.6-1.39-1.176-2.793-1.738-4.2-.1-.242-.181-.369-.468-.4-1.313-.14-2.622-.318-3.935-.468A1.544,1.544,0,0,1,0,28.491q0-3.05,0-6.1A1.574,1.574,0,0,1,1.6,20.638c1.262-.137,2.525-.311,3.79-.445a.575.575,0,0,0,.542-.446q.81-2.069,1.7-4.111a.576.576,0,0,0-.064-.7c-.832-1.026-1.644-2.072-2.454-3.116a1.5,1.5,0,0,1,.132-2.174q2.188-2.2,4.386-4.386a1.509,1.509,0,0,1,2.21-.14c1.043.812,2.085,1.627,3.118,2.454a.512.512,0,0,0,.613.084c1.408-.608,2.83-1.173,4.238-1.777a.67.67,0,0,0,.352-.425c.172-1.209.356-2.421.45-3.637A1.978,1.978,0,0,1,21.732,0ZM12.706,25.47A12.7,12.7,0,1,0,25.315,12.7,12.727,12.727,0,0,0,12.706,25.47Z" transform="translate(0 0)" fill="#4053a4"/></g><g transform="translate(1150.706 1350.037)"><path d="M-3896.8-844.447h16.287a4.4,4.4,0,0,1,2.508,4.025c.2,2.665.643,5.308.932,7.967a1.193,1.193,0,0,0,.915,1.135c3.092,1.214,6.165,2.49,9.215,3.805a1.214,1.214,0,0,0,1.467-.141c2.281-1.841,4.591-3.642,6.906-5.443a3.355,3.355,0,0,1,4.9.294q4.865,4.853,9.714,9.722a3.352,3.352,0,0,1,.271,4.906c-1.8,2.309-3.606,4.618-5.441,6.9a1.139,1.139,0,0,0-.154,1.366c1.327,3.083,2.62,6.182,3.853,9.31a1.184,1.184,0,0,0,1.134.909c2.659.294,5.3.745,7.967.943a4.363,4.363,0,0,1,4.019,2.5v16.289a4.383,4.383,0,0,1-4.027,2.507c-2.665.2-5.307.649-7.965.937a1.187,1.187,0,0,0-1.128.92q-1.839,4.641-3.818,9.214a1.2,1.2,0,0,0,.142,1.463c1.841,2.281,3.646,4.6,5.449,6.911a3.343,3.343,0,0,1-.311,4.9q-4.81,4.844-9.637,9.654a3.387,3.387,0,0,1-4.992.322c-2.282-1.784-4.569-3.563-6.826-5.375a1.213,1.213,0,0,0-1.461-.2q-4.623,2-9.317,3.851a1.105,1.105,0,0,0-.866,1.05c-.308,2.879-.7,5.747-1.021,8.627a3.436,3.436,0,0,1-3.753,3.427q-6.828.009-13.647,0a3.444,3.444,0,0,1-3.738-3.449c-.321-2.874-.71-5.742-1.021-8.622-.067-.626-.343-.818-.885-1.033q-4.684-1.872-9.317-3.857a1.132,1.132,0,0,0-1.367.153c-2.256,1.812-4.538,3.6-6.826,5.38-1.834,1.435-3.442,1.355-5.068-.265q-4.829-4.827-9.632-9.666a3.376,3.376,0,0,1-.289-4.907c1.8-2.315,3.607-4.624,5.444-6.916a1.127,1.127,0,0,0,.156-1.366c-1.324-3.083-2.606-6.193-3.855-9.31-.214-.536-.4-.818-1.039-.886-2.914-.31-5.817-.706-8.727-1.039a3.425,3.425,0,0,1-3.348-3.721q-.008-6.766,0-13.533c0-2.377,1.167-3.625,3.535-3.884,2.8-.305,5.6-.689,8.406-.988a1.276,1.276,0,0,0,1.2-.988q1.8-4.59,3.761-9.118a1.276,1.276,0,0,0-.142-1.558c-1.847-2.275-3.646-4.6-5.444-6.911a3.333,3.333,0,0,1,.3-4.821q4.851-4.878,9.726-9.728a3.347,3.347,0,0,1,4.9-.311c2.314,1.8,4.625,3.608,6.916,5.443a1.14,1.14,0,0,0,1.362.186c3.123-1.349,6.277-2.6,9.4-3.941a1.492,1.492,0,0,0,.781-.943c.383-2.682.788-5.369,1-8.068A4.382,4.382,0,0,1-3896.8-844.447Zm-20.021,56.493a28.23,28.23,0,0,0,28.263,28.027,28.232,28.232,0,0,0,28.077-28.32,28.224,28.224,0,0,0-28.37-28.021A28.223,28.223,0,0,0-3916.821-787.954Z" transform="translate(3945.003 844.447)" fill="#4053a4"/></g></g><g transform="translate(856.55 335.341)"><path d="M-392.553,150.925s29.27,58.094,31.105,98.325-101.695,5-101.695,5l-9.906-87.795Z" transform="translate(683.823 -108.416)" fill="#1d1d1d"/><path d="M-342.837,298.845a223.63,223.63,0,0,0,64.264,27.5" transform="translate(466.071 -103.09)" fill="none" stroke="#5379b3" stroke-linecap="round" stroke-miterlimit="10" stroke-width="1"/><path d="M-450.944,287.973a78.565,78.565,0,0,0-21.767-67.427c-2.013,25.056,5.654,50.581,21.767,67.427Z" transform="translate(772.325 -105.909)" fill="#8dbce5"/><path d="M-322.636,288.865s-2.269,20.793-4.807,22.461c-4.538,2.994-57.064,9.915-57.064,9.915l1.72,13.665s71.941,6.465,75,2.87c5.3-6.237,14.629-36.323,14.629-36.323l-29.475-12.588Z" transform="translate(523.83 -103.449)" fill="#ce9264"/><path d="M-350.386,237.68l-5.812-13.955s-15.768,7.407-20.969,16.555c-5.563,9.78-12.37,61.777-12.37,61.777s27.838,6.413,32.956,3.688,6.2-68.066,6.2-68.066Z" transform="translate(586.265 -105.795)" fill="#cf302c"/><path d="M-420.134,243.431c-1.026,1.181-2.238,2.476-3.916,2.59-1.772.124-3.253-1.129-4.393-2.341a44.589,44.589,0,0,1-11.344-21.756c1.461-.829,2.87-1.627,4.144-2.372a6.292,6.292,0,0,0,2.58-2.839,5.453,5.453,0,0,0,.383-2.673,76.4,76.4,0,0,0-4.3-20.036c12.992-2.932,25.248-6.413,32.293-12.3.86,3.626,1.875,10.723,4.04,17.757,2.31,7.449,5.916,14.815,12.028,17.985a128.9,128.9,0,0,0-31.516,25.983Z" transform="translate(676.557 -107.308)" fill="#eab287"/><path d="M-423.878,214.049a5.436,5.436,0,0,1-.383,2.673c7.687,9.324,24.875-2.859,32.417-17.25-2.165-7.035-3.181-14.131-4.04-17.757-7.035,5.885-19.3,9.376-32.293,12.3a76.311,76.311,0,0,1,4.3,20.036Z" transform="translate(667.755 -107.308)" fill="#ce9264"/><path d="M-458.994,325.661c1.7,11.251-10.443,23.362-10.743,29.371,25.786,0,79.8,1.575,107.31-2.165,1.254-6.941-12.329-22.554-12.329-37.97,0-2.041.083-4.279.249-6.682.435-6.879,1.45-15.064,2.58-23.455,3.067-22.513,7.148-46.589,4.134-51.583-5.905-9.728-19.715-16.338-26.563-19.177-2.352-.974-3.885-1.5-4-1.564-8.589,14.649-26.066,27.143-32.665,26.584-1.834-.145-7.273-2.041-10.868-20.14-1.4.8-2.8,1.533-4.185,2.248-6.827,3.554-13.23,6.485-15.074,11.054-4.869,12.028-9.645,42.352-8.589,53.138,1.067,10.878,5.439,19.186,8.506,30.105.715,2.559,1.368,5.273,1.9,8.2.135.652.238,1.335.342,2.04Z" transform="translate(681.467 -106.201)" fill="#ee6861"/><path d="M-469.886,352.915c25.786,0,79.8,1.575,107.31-2.165,1.254-6.941-12.329-22.554-12.329-37.97,0-2.041.083-4.279.249-6.682.435-6.879,1.45-15.064,2.58-23.455-4.88,5.149-12-16.607-15.147-10.236-17.042,34.4-30.479,43.44-53.831,43.44a89.658,89.658,0,0,1-20.327-2.538c.715,2.559,1.368,5.273,1.9,8.195q.186.995.342,2.051c1.7,11.23-10.443,23.341-10.743,29.361Z" transform="translate(681.616 -104.084)" fill="#ee6861"/><path d="M-438.987,221.127c1.109,8.05,4.393,18.9,13.945,21.756,12.909,3.864,31.588-20.254,37.773-28.884-2.352-.974-3.885-1.5-4-1.564-8.589,14.649-26.066,27.143-32.666,26.584-1.834-.145-7.273-2.041-10.868-20.14-1.4.787-2.8,1.523-4.185,2.248Z" transform="translate(674.379 -106.201)" fill="#cf302c"/><path d="M-223.217,338.394l.093,8.982-160.582.953-.331-10.184,160.82.249Z" transform="translate(453.305 -101.674)" fill="#4d4e4e"/><path d="M-334.847,261.188l3.574-3.626,116.966-.767,58.68,84.86-3.067,2.466-176.153-82.933Z" transform="translate(334.847 -104.604)" fill="#4d4e4e"/><path d="M-213.606,259.825l57.872,84.186-110.543.549-65.611-83.482,118.281-1.254Z" transform="translate(331.887 -104.495)" fill="#757575"/><path d="M-248.62,299.275c-7.107,0-12.867,2.881-12.867,6.434s5.76,6.434,12.867,6.434,12.867-2.88,12.867-6.434-5.761-6.434-12.867-6.434Z" transform="translate(338.97 -103.074)" fill="#969696"/><path d="M-358.274,180.153c-1.823-9.782-8.532-16.738-14.983-15.535s-10.2,10.106-8.382,19.888,8.532,16.738,14.983,15.535,10.2-10.106,8.382-19.888Z" transform="translate(585.987 -107.928)" fill="#44b7eb"/><path d="M-362.762,180.153c-1.823-9.782-8.532-16.738-14.983-15.535s-10.2,10.106-8.382,19.888,8.532,16.738,14.983,15.535,10.2-10.106,8.382-19.888Z" transform="translate(595.125 -107.928)" fill="#4d4e4e"/><path d="M-383.88,155.411c1.2,8.516,5,17.9,10.547,28.273,1.948-8.5,3.191-18.845,4.911-29.195,1.751-10.37,3.978-20.741,7.843-29.216a50.726,50.726,0,0,1,2.839-5.325,18.9,18.9,0,0,0-6.817.611,22.84,22.84,0,0,0-9.324,5.087,32.693,32.693,0,0,0-9.086,14.846,33.318,33.318,0,0,0-.912,14.919Z" transform="translate(588.212 -109.535)" fill="#02223f"/><path d="M-435.933,164.363c.062,1.678.176,3.388.332,5.087,2.362,27.558,13.934,46.465,31.64,46.465,25,0,41.2-28.035,41.2-55.5,0-27.092-16.6-46.7-36.022-44.435-11.2,1.285-19.384,5-25.2,10.453a34.339,34.339,0,0,0-8.516,12.992,56.8,56.8,0,0,0-3.429,18.71c0,.021-.021.041-.021.062-.083,2.01-.062,4.061.01,6.164Z" transform="translate(646.772 -109.681)" fill="#eab287"/><path d="M-424.881,163.666a27.7,27.7,0,0,1,3.367-7.594,78.668,78.668,0,0,0,48.972,7.863c3.17,2.642,6.268,5.242,9.386,7.843-.062-12.536-.238-21.021-5.128-27.092-4.59-5.7-12.246-7.843-19.5-8.775a90.188,90.188,0,0,0-24.605.155,24.9,24.9,0,0,0-9.065,2.683,56.8,56.8,0,0,0-3.429,18.71c0,.021-.021.041-.021.062-.072,1.989-.052,4.04.021,6.144Z" transform="translate(635.72 -108.985)" fill="#ce9264"/><path d="M-443.15,147.551a46.183,46.183,0,0,0,12.556,7.252c13.737,5.543,31.588,7.376,45.5,6.7,6.838,15.022,9.6,20.409,11.355,33.515,6.682-6.268,12.121-17.747,13.738-26.771a61.229,61.229,0,0,0-1.067-27.268,40.782,40.782,0,0,0-20.8-25.02,39.1,39.1,0,0,0-4.476-2.072c-8.816-3.408-18.752-3.1-27.8-.332a33.1,33.1,0,0,0-12.577,7.314c-7.055,6.371-11.417,15-14.235,21.466-.891,1.979-1.606,3.771-2.2,5.211Z" transform="translate(650.384 -109.839)" fill="#424243"/><path d="M-420.579,155.715a42.176,42.176,0,0,1,2.621-8.754,30.16,30.16,0,0,1,2.466-4.631,25.394,25.394,0,0,1,13.23-10.785,48.682,48.682,0,0,1,4.973-5.957A38.376,38.376,0,0,1-375.875,114.3a40.683,40.683,0,0,1,19.456,1.658,39.1,39.1,0,0,0-4.476-2.072c-8.816-3.409-18.752-3.1-27.8-.332a33.1,33.1,0,0,0-12.577,7.314,22.84,22.84,0,0,0-9.324,5.087,32.693,32.693,0,0,0-9.086,14.846,33.468,33.468,0,0,0-.9,14.919Z" transform="translate(624.912 -109.84)" fill="#1d1d1d"/><path d="M-365.72,170.579c-4.621-2.642-9.417-3.833-16.141-1.378m-15.5,1.191c-3.958-2.953-9.821-3.253-12.878,0" transform="translate(623.044 -107.806)" fill="none" stroke="#02223f" stroke-linecap="round" stroke-miterlimit="10" stroke-width="2"/><path d="M-385.735,184.845c-.4,2.093-1.4,7.082,1.952,6.2" transform="translate(616.195 -107.195)" fill="none" stroke="#bb8256" stroke-linecap="round" stroke-miterlimit="10" stroke-width="2"/><path d="M-399.311,175.129c-1.053,0-1.906,1.346-1.906,3s.854,3,1.906,3,1.906-1.345,1.906-3-.854-3-1.906-3Z" transform="translate(645.384 -107.545)" fill="#1a2231"/><path d="M-375.261,174.343c-1.053,0-1.906,1.346-1.906,3s.854,3,1.906,3,1.906-1.345,1.906-3-.854-3-1.906-3Z" transform="translate(596.418 -107.573)" fill="#1a2231"/><path d="M-403.991,199.467a14.647,14.647,0,0,0,1.088,1.709,11.831,11.831,0,0,0,5.625,4.382h.01a7.346,7.346,0,0,0,3.616.238c3.9-.694,4.921-4.289,5.108-7.055a14.793,14.793,0,0,0,.031-1.492,14.114,14.114,0,0,0-.145-1.865c-6.206,3.419-15.333,4.082-15.333,4.082Z" transform="translate(639.36 -106.815)" fill="#be2f3d"/><path d="M-403.985,199.467a14.649,14.649,0,0,0,1.088,1.709c3.17-.041,9.656-1.668,14.39-3.926a14.123,14.123,0,0,0-.145-1.865c-6.206,3.419-15.333,4.082-15.333,4.082Z" transform="translate(639.354 -106.815)" fill="#fff"/><path d="M-403.955,205.432a7.346,7.346,0,0,0,3.616.238c3.9-.694,4.921-4.289,5.107-7.055a10.805,10.805,0,0,0-5.221,2.1,10.75,10.75,0,0,0-3.5,4.714Z" transform="translate(646.048 -106.699)" fill="#dd5989"/><path d="M-428.578,161.924c-6.88-.716-13.336,7.156-14.42,17.582s3.616,19.456,10.5,20.172,13.337-7.157,14.42-17.582-3.615-19.457-10.5-20.172Z" transform="translate(709.354 -108.022)" fill="#4d4e4e"/><path d="M-390.865,204.785c-3.685,0-6.672,1.861-6.672,4.154s2.987,4.154,6.672,4.154,6.672-1.86,6.672-4.154-2.988-4.154-6.672-4.154Z" transform="translate(628.36 -106.477)" fill="#757575"/><path d="M-396.6,195.385s-9.8,12.6-26.843,13.893" transform="translate(667.614 -106.815)" fill="none" stroke="#1b81bf" stroke-linecap="round" stroke-miterlimit="10" stroke-width="2"/><path d="M-469.877,316.692l.642,16.566s59.913,17.954,69.806,12.277c4.828-2.777,9.335-18.047,12.7-32.956,3.522-15.665,5.781-30.915,5.781-30.915l-35.121-6.879s-.021,21.414-1.212,33.795c-.425,4.61-1.036,7.967-1.854,8.516-3.1,2.041-50.744-.4-50.744-.4Z" transform="translate(700.058 -103.956)" fill="#eab287"/><path d="M-469.877,308.559c6.382,2.072,18.7,5.273,30.552,4.009,3.522-15.665,5.781-30.915,5.781-30.915l-35.121-6.879c0-.01-.021,21.4-1.212,33.784Z" transform="translate(752.656 -103.956)" fill="#ce9264"/><path d="M-338.091,315.68c-8.91-1.906-23.994-6.485-30.252-8.06-4.444-1.119-16.017,4.869-19.073,10.516-1.336,2.466-2.6,16.431,2.031,14.991,2.321-.725,1.937-6.713,2.663-9.158.591-1.989,2.476-3.916,5.346-5.574-1.917,4.776-1.844,8.941-1.637,14.1a7.31,7.31,0,0,0,.663,3.315,2.379,2.379,0,0,0,2.8,1.254c1.057-.435,1.419-1.751,1.658-2.9a94.3,94.3,0,0,0,1.979-12.453c-.083,4.424.01,8.858.29,13.271.207,3.377,1.886,5.232,3.947,4.641.922-.259,1.3-1.109,1.689-2.227.622,2.165,2.176,4.558,4.186,3.647,1.222-.549,1.979-4.963,1.761-9.5,3.854,2.393,8.205,3.409,13.22,3.636,4.5.207,9.1-.632,11.8-3.688a79.483,79.483,0,0,0-3.067-15.81Z" transform="translate(569.981 -102.778)" fill="#eab287"/><path d="M-359.446,336.066a31.677,31.677,0,0,1,.922-10.681" transform="translate(563.344 -102.134)" fill="none" stroke="#be2f3d" stroke-linecap="round" stroke-miterlimit="10" stroke-width="1"/><path d="M-465.877,242.005c2.549-7.18,11.883-21.87,11.883-21.87s14.245,5.926,19.3,15.986c8.557,17.032,4.206,65.932,4.206,65.932-11.531,4.828-34.675,4.9-44.528,3.512,0,0,4.03-49.211,9.138-63.559Z" transform="translate(753.816 -105.924)" fill="#cf302c"/><path d="M-358.644,163.751s-3-53.857-37.031-53.857-42.516,26.928-42.516,26.928,13.393-26.119,40.655-19.037,27.253,54.7,27.253,54.7Z" transform="translate(644.929 -109.894)" fill="#1b81bf"/><path d="M-432.576,161.924c-6.88-.716-13.336,7.156-14.42,17.582s3.616,19.456,10.5,20.172,13.336-7.157,14.42-17.582-3.615-19.457-10.5-20.172Z" transform="translate(717.494 -108.022)" fill="#44b7eb"/><path d="M-438.342,164.629c-5.858-.609-11.355,6.093-12.279,14.971s3.079,16.567,8.938,17.176,11.356-6.094,12.279-14.97-3.078-16.568-8.938-17.177Z" transform="translate(728.571 -107.924)" fill="#1b81bf"/></g><path d="M458.276,881.672H7.924c-1.847,0-3.324-1.86-3.324-4.186h0c0-2.326,1.477-4.186,3.324-4.186H458.276c1.847,0,3.324,1.861,3.324,4.186h0C461.6,879.754,460.123,881.672,458.276,881.672Z" transform="translate(837.4 -296.3)" fill="#74a2ca"/><g transform="translate(8.372 8.372)"><g transform="matrix(0.966, -0.259, 0.259, 0.966, 887, 234.257)"><path d="M71.8,35.9A35.9,35.9,0,1,1,35.9,0,35.862,35.862,0,0,1,71.8,35.9Z" fill="#7dc2e3"/><path d="M11.75,0A11.751,11.751,0,1,1,0,11.75,11.75,11.75,0,0,1,11.75,0Z" transform="translate(24.148 12.333)" fill="#fff"/><path d="M44.522,25.949a35.656,35.656,0,0,1-22.261,7.729A35.75,35.75,0,0,1,0,25.949C2.3,15.847,4.409,7.126,6.608,4.916,9.713,1.811,17.96,0,22.251,0S35.176,2.2,36.772,3.795C40.027,7.04,42.83,16,44.522,25.949Z" transform="translate(13.637 33.591)" fill="#fff"/></g></g></g></svg>